RobotoSerifTextWide-Hairline 05h.ufo
<glyph name="asterisk" format="2">
  <advance width="423"/>
  <unicode hex="002A"/>
  <guideline x="325" y="536" angle="0" identifier="q3cfej7eHP"/>
  <outline>
    <contour>
      <point x="57" y="432" type="line"/>
      <point x="106" y="458"/>
      <point x="127" y="480"/>
      <point x="216" y="526" type="curve"/>
      <point x="207" y="545" type="line"/>
      <point x="118" y="498"/>
      <point x="87" y="491"/>
      <point x="38" y="465" type="curve"/>
    </contour>
    <contour>
      <point x="208" y="526" type="curve"/>
      <point x="217" y="545" type="line"/>
      <point x="128" y="591"/>
      <point x="106" y="614"/>
      <point x="57" y="640" type="curve"/>
      <point x="38" y="606" type="line"/>
      <point x="87" y="580"/>
      <point x="119" y="573"/>
    </contour>
    <contour>
      <point x="193" y="361" type="curve"/>
      <point x="231" y="361" type="line"/>
      <point x="231" y="414"/>
      <point x="222" y="443"/>
      <point x="222" y="536" type="curve"/>
      <point x="202" y="536" type="line"/>
      <point x="202" y="443"/>
      <point x="193" y="414"/>
    </contour>
    <contour>
      <point x="202" y="536" type="curve"/>
      <point x="222" y="536" type="line"/>
      <point x="222" y="629"/>
      <point x="231" y="658"/>
      <point x="231" y="710" type="curve"/>
      <point x="193" y="710" type="line"/>
      <point x="193" y="658"/>
      <point x="202" y="629"/>
    </contour>
    <contour>
      <point x="367" y="432" type="curve"/>
      <point x="385" y="465" type="line"/>
      <point x="336" y="491"/>
      <point x="305" y="498"/>
      <point x="217" y="545" type="curve"/>
      <point x="208" y="526" type="line"/>
      <point x="296" y="480"/>
      <point x="318" y="458"/>
    </contour>
    <contour>
      <point x="216" y="526" type="line"/>
      <point x="304" y="573"/>
      <point x="336" y="580"/>
      <point x="385" y="606" type="curve"/>
      <point x="367" y="640" type="line"/>
      <point x="318" y="614"/>
      <point x="295" y="591"/>
      <point x="207" y="545" type="curve"/>
    </contour>
  </outline>
</glyph>
<glyph name="plus" format="2">
  <advance width="664"/>
  <unicode hex="002B"/>
  <outline>
    <contour>
      <point x="315" y="534" type="line"/>
      <point x="315" y="148" type="line"/>
      <point x="348" y="148" type="line"/>
      <point x="348" y="534" type="line"/>
    </contour>
    <contour>
      <point x="547" y="356" type="line"/>
      <point x="117" y="356" type="line"/>
      <point x="117" y="326" type="line"/>
      <point x="547" y="326" type="line"/>
    </contour>
  </outline>
</glyph>
<glyph name="zero" format="2">
  <advance width="664"/>
  <unicode hex="0030"/>
  <outline>
    <contour>
      <point x="332.0" y="-10.0" type="curve" smooth="yes"/>
      <point x="495" y="-10.0"/>
      <point x="610.0" y="122.57777777777778"/>
      <point x="610" y="304" type="curve" smooth="yes"/>
      <point x="610.0" y="486.0"/>
      <point x="495" y="619.0"/>
      <point x="332.0" y="619.0" type="curve" smooth="yes"/>
      <point x="169" y="619.0"/>
      <point x="54.0" y="486.0"/>
      <point x="54" y="304" type="curve" smooth="yes"/>
      <point x="54.0" y="123"/>
      <point x="169" y="-10.0"/>
    </contour>
    <contour>
      <point x="332" y="20" type="curve" smooth="yes"/>
      <point x="189.0" y="20.0"/>
      <point x="97.0" y="136.0"/>
      <point x="97" y="304" type="curve" smooth="yes"/>
      <point x="97.0" y="472"/>
      <point x="189.0" y="589.0"/>
      <point x="332" y="589" type="curve" smooth="yes"/>
      <point x="475.0" y="589.0"/>
      <point x="567.0" y="471.5880281690141"/>
      <point x="567" y="304" type="curve" smooth="yes"/>
      <point x="567.0" y="135.0"/>
      <point x="475.0" y="20.0"/>
    </contour>
  </outline>
</glyph>
<glyph name="eight" format="2">
  <advance width="664"/>
  <unicode hex="0038"/>
  <outline>
    <contour>
      <point x="332" y="20" type="curve" smooth="yes"/>
      <point x="209.44292237442923" y="20.0"/>
      <point x="112.0" y="88.0"/>
      <point x="112" y="197" type="curve" smooth="yes"/>
      <point x="112.0" y="301.0"/>
      <point x="209.44292237442923" y="361.0"/>
      <point x="332" y="361" type="curve" smooth="yes"/>
      <point x="454.55707762557074" y="361.0"/>
      <point x="552.0" y="301.0"/>
      <point x="552" y="197" type="curve" smooth="yes"/>
      <point x="552.0" y="88.0"/>
      <point x="454.55707762557074" y="20.0"/>
    </contour>
    <contour>
      <point x="332" y="-10" type="curve" smooth="yes"/>
      <point x="477" y="-10"/>
      <point x="595" y="72"/>
      <point x="595" y="192" type="curve" smooth="yes"/>
      <point x="595" y="312"/>
      <point x="481" y="387"/>
      <point x="332" y="387" type="curve" smooth="yes"/>
      <point x="186" y="387"/>
      <point x="69" y="312"/>
      <point x="69" y="192" type="curve" smooth="yes"/>
      <point x="69" y="72"/>
      <point x="185" y="-10"/>
    </contour>
    <contour>
      <point x="332" y="391" type="curve" smooth="yes"/>
      <point x="234.4611111111111" y="391.0"/>
      <point x="151.0" y="446.0"/>
      <point x="151" y="538" type="curve" smooth="yes"/>
      <point x="151.0" y="631.0"/>
      <point x="228.42777777777778" y="690.0"/>
      <point x="332" y="690" type="curve" smooth="yes"/>
      <point x="435.0" y="690.0"/>
      <point x="513.0" y="631"/>
      <point x="513" y="538" type="curve" smooth="yes"/>
      <point x="513.0" y="446"/>
      <point x="429.0" y="391.0"/>
    </contour>
    <contour>
      <point x="332" y="367" type="curve" smooth="yes"/>
      <point x="452.0" y="367.0"/>
      <point x="555.0" y="434.3828571428571"/>
      <point x="555" y="543" type="curve" smooth="yes"/>
      <point x="555" y="648"/>
      <point x="449" y="720"/>
      <point x="332" y="720" type="curve" smooth="yes"/>
      <point x="215" y="720"/>
      <point x="109" y="648"/>
      <point x="109" y="543" type="curve" smooth="yes"/>
      <point x="109.0" y="434.3828571428571"/>
      <point x="212.0" y="367.0"/>
    </contour>
  </outline>
</glyph>
<glyph name="less" format="2">
  <advance width="664"/>
  <unicode hex="003C"/>
  <outline>
    <contour>
      <point x="540" y="530" type="line"/>
      <point x="124" y="353" type="line"/>
      <point x="124" y="327" type="line"/>
      <point x="147" y="327" type="line"/>
      <point x="540" y="492" type="line"/>
    </contour>
    <contour>
      <point x="540" y="172" type="line"/>
      <point x="142" y="340" type="line"/>
      <point x="124" y="340" type="line"/>
      <point x="124" y="311" type="line"/>
      <point x="540" y="134" type="line"/>
    </contour>
  </outline>
</glyph>
<glyph name="asciicircum" format="2">
  <advance width="595"/>
  <unicode hex="005E"/>
  <outline>
    <contour>
      <point x="126" y="364" type="line"/>
      <point x="301" y="685" type="line"/>
      <point x="306" y="710" type="line"/>
      <point x="275" y="710" type="line"/>
      <point x="85" y="364" type="line"/>
    </contour>
    <contour>
      <point x="468" y="364" type="line"/>
      <point x="509" y="364" type="line"/>
      <point x="318" y="710" type="line"/>
      <point x="290" y="710" type="line"/>
      <point x="293" y="686" type="line"/>
    </contour>
  </outline>
</glyph>
<glyph name="cent" format="2">
  <advance width="664"/>
  <unicode hex="00A2"/>
  <outline>
    <contour>
      <point x="331" y="623" type="line"/>
      <point x="331" y="505" type="line"/>
      <point x="331" y="497" type="line"/>
      <point x="331" y="8" type="line"/>
      <point x="331" y="1" type="line"/>
      <point x="331" y="-126" type="line"/>
      <point x="367" y="-126" type="line"/>
      <point x="367" y="-1" type="line"/>
      <point x="367" y="8" type="line"/>
      <point x="367" y="495" type="line"/>
      <point x="367" y="503" type="line"/>
      <point x="367" y="623" type="line"/>
    </contour>
    <contour>
      <point x="349" y="20" type="curve" smooth="yes"/>
      <point x="225" y="20"/>
      <point x="123.0" y="107.0"/>
      <point x="123" y="253" type="curve" smooth="yes"/>
      <point x="123.0" y="394.0"/>
      <point x="212" y="488.0"/>
      <point x="360" y="488" type="curve" smooth="yes"/>
      <point x="452" y="488.0"/>
      <point x="512" y="461"/>
      <point x="534" y="426" type="curve"/>
      <point x="545" y="435"/>
      <point x="542" y="452"/>
      <point x="516" y="461" type="curve"/>
      <point x="516" y="374" type="line"/>
      <point x="563" y="374" type="line"/>
      <point x="563" y="457" type="line"/>
      <point x="542" y="476"/>
      <point x="482" y="518.0"/>
      <point x="360" y="518" type="curve" smooth="yes"/>
      <point x="187" y="518.0"/>
      <point x="80.0" y="409.0"/>
      <point x="80" y="253" type="curve" smooth="yes"/>
      <point x="80.0" y="92.0"/>
      <point x="188" y="-10"/>
      <point x="350" y="-10" type="curve" smooth="yes"/>
      <point x="473" y="-10.0"/>
      <point x="541" y="54"/>
      <point x="580" y="122" type="curve"/>
      <point x="550" y="139" type="line"/>
      <point x="522" y="84"/>
      <point x="465" y="20.0"/>
    </contour>
  </outline>
</glyph>
<glyph name="sterling" format="2">
  <advance width="664"/>
  <unicode hex="00A3"/>
  <outline>
    <contour>
      <point x="51" y="353" type="line"/>
      <point x="51" y="323" type="line"/>
      <point x="476" y="323" type="line"/>
      <point x="476" y="353" type="line"/>
    </contour>
    <contour>
      <point x="52" y="-11" type="line"/>
      <point x="191.3502990214045" y="16.264188938970456"/>
      <point x="275.0" y="89.89473684210527"/>
      <point x="275.0" y="202.0" type="curve" smooth="yes"/>
      <point x="275.0" y="316.5939393939394"/>
      <point x="168.0" y="410.84375"/>
      <point x="168" y="528" type="curve" smooth="yes"/>
      <point x="168.0" y="635.0"/>
      <point x="247.8203883495146" y="690.0"/>
      <point x="371" y="690" type="curve" smooth="yes"/>
      <point x="450.4625" y="690.0"/>
      <point x="504.7288899595166" y="664.6057339036157"/>
      <point x="534" y="641" type="curve"/>
      <point x="534.0" y="651.0"/>
      <point x="523.8417022918783" y="667.2216167913705"/>
      <point x="514" y="681" type="curve"/>
      <point x="514" y="586" type="line"/>
      <point x="562" y="586" type="line"/>
      <point x="562" y="671" type="line"/>
      <point x="531.5720543441331" y="692.8700859401544"/>
      <point x="466.5" y="720.0"/>
      <point x="371" y="720" type="curve" smooth="yes"/>
      <point x="221.81927710843374" y="720.0"/>
      <point x="125.0" y="646.6197916666666"/>
      <point x="125" y="527" type="curve" smooth="yes"/>
      <point x="125.0" y="399.65625"/>
      <point x="239.0" y="301.76363636363635"/>
      <point x="239.0" y="201.0" type="curve" smooth="yes"/>
      <point x="239.0" y="100.77272727272728"/>
      <point x="170" y="46"/>
      <point x="52" y="21" type="curve"/>
    </contour>
    <contour>
      <point x="451" y="-10" type="curve" smooth="yes"/>
      <point x="536" y="-10"/>
      <point x="573.0525806144893" y="33.13862162001746"/>
      <point x="606" y="120" type="curve"/>
      <point x="577" y="134" type="line"/>
      <point x="549.0634097904923" y="65.15625984085592"/>
      <point x="522" y="30"/>
      <point x="455" y="30" type="curve" smooth="yes"/>
      <point x="395.0" y="30.0"/>
      <point x="339" y="62"/>
      <point x="248" y="146" type="curve"/>
      <point x="246.11527678324546" y="139.40346874135912"/>
      <point x="240.76712965841318" y="123.83063975157323"/>
      <point x="230" y="116" type="curve"/>
      <point x="324" y="28"/>
      <point x="378" y="-10.0"/>
    </contour>
  </outline>
</glyph>
<glyph name="currency" format="2">
  <advance width="654"/>
  <unicode hex="00A4"/>
  <outline>
    <contour>
      <point x="501" y="376" type="curve" smooth="yes"/>
      <point x="501.0" y="276.0"/>
      <point x="430.6179775280899" y="206.0"/>
      <point x="327" y="206" type="curve" smooth="yes"/>
      <point x="223.3820224719101" y="206.0"/>
      <point x="153.0" y="277.0"/>
      <point x="153" y="376" type="curve" smooth="yes"/>
      <point x="153.0" y="476.0"/>
      <point x="223.3820224719101" y="547.0"/>
      <point x="327" y="547" type="curve" smooth="yes"/>
      <point x="430.6179775280899" y="547.0"/>
      <point x="501.0" y="476.0"/>
    </contour>
    <contour>
      <point x="113" y="376" type="curve" smooth="yes"/>
      <point x="113.0" y="257.0"/>
      <point x="208.2201834862385" y="171.0"/>
      <point x="327" y="171" type="curve" smooth="yes"/>
      <point x="446.76146788990826" y="171.0"/>
      <point x="541.0" y="257.0"/>
      <point x="541" y="376" type="curve" smooth="yes"/>
      <point x="541.0" y="496.0"/>
      <point x="446.76146788990826" y="582.0"/>
      <point x="327" y="582" type="curve" smooth="yes"/>
      <point x="208.2201834862385" y="582.0"/>
      <point x="113.0" y="496.0"/>
    </contour>
    <contour>
      <point x="66" y="599" type="line"/>
      <point x="174" y="496" type="line"/>
      <point x="208" y="517" type="line"/>
      <point x="93" y="627" type="line"/>
    </contour>
    <contour>
      <point x="588" y="599" type="line"/>
      <point x="561" y="627" type="line"/>
      <point x="446" y="517" type="line"/>
      <point x="481" y="496" type="line"/>
    </contour>
    <contour>
      <point x="66" y="153" type="line"/>
      <point x="93" y="125" type="line"/>
      <point x="208" y="235" type="line"/>
      <point x="174" y="256" type="line"/>
    </contour>
    <contour>
      <point x="588" y="153" type="line"/>
      <point x="481" y="256" type="line"/>
      <point x="446" y="235" type="line"/>
      <point x="561" y="125" type="line"/>
    </contour>
  </outline>
</glyph>
<glyph name="yen" format="2">
  <advance width="664"/>
  <unicode hex="00A5"/>
  <outline>
    <contour>
      <point x="102" y="344" type="line"/>
      <point x="102" y="314" type="line"/>
      <point x="562" y="314" type="line"/>
      <point x="562" y="344" type="line"/>
    </contour>
    <contour>
      <point x="102" y="208" type="line"/>
      <point x="102" y="178" type="line"/>
      <point x="562" y="178" type="line"/>
      <point x="562" y="208" type="line"/>
    </contour>
    <contour>
      <point x="313" y="352" type="line"/>
      <point x="313" y="63" type="line" smooth="yes"/>
      <point x="313" y="36"/>
      <point x="277" y="30"/>
      <point x="229" y="30" type="curve" smooth="yes"/>
      <point x="210" y="30" type="line"/>
      <point x="210" y="0" type="line"/>
      <point x="455" y="0" type="line"/>
      <point x="455" y="30" type="line"/>
      <point x="436" y="30" type="line" smooth="yes"/>
      <point x="389" y="30"/>
      <point x="353" y="36"/>
      <point x="353" y="63" type="curve" smooth="yes"/>
      <point x="353" y="352" type="line"/>
    </contour>
    <contour>
      <point x="22" y="710" type="line"/>
      <point x="22" y="680" type="line"/>
      <point x="28" y="680" type="line" smooth="yes"/>
      <point x="66.20224719101122" y="680"/>
      <point x="96.14538251392142" y="680.9673879777257"/>
      <point x="113" y="654" type="curve" smooth="yes"/>
      <point x="323" y="318" type="line"/>
      <point x="342" y="318" type="line"/>
      <point x="540" y="639" type="line" smooth="yes"/>
      <point x="562.4324984069939" y="675.3678383264901"/>
      <point x="594.8282828282828" y="680"/>
      <point x="632" y="680" type="curve" smooth="yes"/>
      <point x="638" y="680" type="line"/>
      <point x="638" y="710" type="line"/>
      <point x="418" y="710" type="line"/>
      <point x="418" y="680" type="line"/>
      <point x="428" y="680" type="line" smooth="yes"/>
      <point x="470.0" y="680.0"/>
      <point x="514.0" y="673.0"/>
      <point x="514" y="662" type="curve"/>
      <point x="317" y="339" type="line"/>
      <point x="348" y="349" type="line"/>
      <point x="150" y="670" type="line"/>
      <point x="150.0" y="677.0"/>
      <point x="194.89795918367344" y="680"/>
      <point x="230" y="680" type="curve" smooth="yes"/>
      <point x="249" y="680" type="line"/>
      <point x="249" y="710" type="line"/>
    </contour>
  </outline>
</glyph>
<glyph name="eogonek" format="2">
  <advance width="584"/>
  <unicode hex="0119"/>
  <outline>
    <contour>
      <point x="432" y="15" type="curve" smooth="yes"/>
      <point x="470" y="37"/>
      <point x="501" y="61"/>
      <point x="528" y="102" type="curve"/>
      <point x="500" y="122" type="line"/>
      <point x="466" y="68"/>
      <point x="412" y="20"/>
      <point x="313" y="20" type="curve" smooth="yes"/>
      <point x="193" y="20"/>
      <point x="93" y="102"/>
      <point x="93" y="250" type="curve" smooth="yes"/>
      <point x="93" y="400"/>
      <point x="175" y="488"/>
      <point x="304" y="488" type="curve" smooth="yes"/>
      <point x="432" y="488"/>
      <point x="489" y="389"/>
      <point x="493" y="267" type="curve"/>
      <point x="509" y="282" type="line"/>
      <point x="72" y="282" type="line"/>
      <point x="72" y="252" type="line"/>
      <point x="534" y="252" type="line"/>
      <point x="533" y="403"/>
      <point x="462" y="518"/>
      <point x="304" y="518" type="curve" smooth="yes"/>
      <point x="151" y="518"/>
      <point x="50" y="412"/>
      <point x="50" y="252" type="curve" smooth="yes"/>
      <point x="50" y="90"/>
      <point x="160" y="-10"/>
      <point x="313" y="-10" type="curve" smooth="yes"/>
      <point x="340" y="-10"/>
      <point x="366" y="-4"/>
      <point x="390" y="2" type="curve"/>
      <point x="394" y="15" type="line"/>
      <point x="316.7974308856736" y="-24.10259994102247"/>
      <point x="249.0" y="-78"/>
      <point x="249" y="-143" type="curve" smooth="yes"/>
      <point x="249" y="-200"/>
      <point x="293.0" y="-233.0"/>
      <point x="350" y="-233" type="curve" smooth="yes"/>
      <point x="399" y="-233"/>
      <point x="438" y="-209"/>
      <point x="466" y="-176" type="curve"/>
      <point x="446" y="-155" type="line"/>
      <point x="423" y="-179"/>
      <point x="397" y="-202"/>
      <point x="357" y="-202" type="curve" smooth="yes"/>
      <point x="321.0" y="-202.0"/>
      <point x="290" y="-182"/>
      <point x="290" y="-142" type="curve" smooth="yes"/>
      <point x="290.0" y="-80"/>
      <point x="343.70472994801526" y="-37.174477757990985"/>
    </contour>
  </outline>
</glyph>
<glyph name="Oogonek" format="2">
  <advance width="862"/>
  <unicode hex="01EA"/>
  <outline>
    <contour>
      <point x="432" y="20" type="curve" smooth="yes"/>
      <point x="240" y="20"/>
      <point x="98" y="150"/>
      <point x="98" y="355" type="curve" smooth="yes"/>
      <point x="98" y="560"/>
      <point x="240" y="690"/>
      <point x="432" y="690" type="curve" smooth="yes"/>
      <point x="623" y="690"/>
      <point x="765" y="560"/>
      <point x="765" y="355" type="curve" smooth="yes"/>
      <point x="765" y="150"/>
      <point x="624" y="20"/>
    </contour>
    <contour>
      <point x="401" y="-141" type="curve" smooth="yes"/>
      <point x="401" y="-199"/>
      <point x="445" y="-233"/>
      <point x="502" y="-233" type="curve" smooth="yes"/>
      <point x="551" y="-233"/>
      <point x="590" y="-209"/>
      <point x="618" y="-176" type="curve"/>
      <point x="598" y="-155" type="line"/>
      <point x="575" y="-179"/>
      <point x="549" y="-202"/>
      <point x="509" y="-202" type="curve" smooth="yes"/>
      <point x="473" y="-202"/>
      <point x="442" y="-181"/>
      <point x="442" y="-140" type="curve" smooth="yes"/>
      <point x="442.0" y="-71"/>
      <point x="514" y="-27"/>
      <point x="627" y="41" type="curve" smooth="yes"/>
      <point x="738" y="108"/>
      <point x="808.0" y="204.03846153846155"/>
      <point x="808" y="355" type="curve" smooth="yes"/>
      <point x="808" y="572"/>
      <point x="648" y="720"/>
      <point x="431" y="720" type="curve" smooth="yes"/>
      <point x="216" y="720"/>
      <point x="55" y="572"/>
      <point x="55" y="355" type="curve" smooth="yes"/>
      <point x="55" y="139"/>
      <point x="216" y="-10"/>
      <point x="431" y="-10" type="curve" smooth="yes"/>
      <point x="469" y="-10"/>
      <point x="510" y="-3"/>
      <point x="546" y="8" type="curve"/>
      <point x="555" y="21" type="line"/>
      <point x="476" y="-20"/>
      <point x="401" y="-73"/>
    </contour>
  </outline>
</glyph>
<glyph name="breve" format="2">
  <advance width="588"/>
  <unicode hex="02D8"/>
  <anchor x="294.0" y="536" name="_top"/>
  <outline>
    <contour>
      <point x="294.0" y="595.0" type="curve" smooth="yes"/>
      <point x="215.0" y="595.0"/>
      <point x="161.0" y="643.0"/>
      <point x="155.0" y="736.0" type="curve"/>
      <point x="184.0" y="736.0" type="line"/>
      <point x="195.0" y="663.0"/>
      <point x="233.0" y="635.0"/>
      <point x="295.0" y="635.0" type="curve" smooth="yes"/>
      <point x="355.0" y="635.0"/>
      <point x="395.0" y="663.0"/>
      <point x="406.0" y="736.0" type="curve"/>
      <point x="433.0" y="736.0" type="line"/>
      <point x="427.0" y="643.0"/>
      <point x="373.0" y="595.0"/>
    </contour>
  </outline>
</glyph>
<glyph name="lira" format="2">
  <advance width="664"/>
  <unicode hex="20A4"/>
  <outline>
    <contour>
      <point x="61" y="429" type="line"/>
      <point x="61" y="399" type="line"/>
      <point x="470" y="399" type="line"/>
      <point x="470" y="429" type="line"/>
    </contour>
    <contour>
      <point x="61" y="274" type="line"/>
      <point x="61" y="244" type="line"/>
      <point x="470" y="244" type="line"/>
      <point x="470" y="274" type="line"/>
    </contour>
    <contour>
      <point x="58" y="-10" type="line"/>
      <point x="209.19591114848242" y="19.84129825298995"/>
      <point x="272.0" y="108"/>
      <point x="272" y="214" type="curve" smooth="yes"/>
      <point x="272" y="327"/>
      <point x="173.0" y="408.031746031746"/>
      <point x="173" y="534" type="curve" smooth="yes"/>
      <point x="173.0" y="632.0"/>
      <point x="244" y="690"/>
      <point x="367" y="690" type="curve" smooth="yes"/>
      <point x="466" y="690"/>
      <point x="519.2625979675083" y="656.7374020324917"/>
      <point x="543" y="633" type="curve"/>
      <point x="547.3926313157996" y="630.8036843421003"/>
      <point x="545" y="665"/>
      <point x="526" y="667" type="curve"/>
      <point x="526" y="574" type="line"/>
      <point x="574" y="574" type="line"/>
      <point x="574" y="660" type="line"/>
      <point x="551" y="678"/>
      <point x="486" y="720"/>
      <point x="368" y="720" type="curve" smooth="yes"/>
      <point x="216" y="720"/>
      <point x="130.0" y="644"/>
      <point x="130" y="529" type="curve" smooth="yes"/>
      <point x="130" y="406"/>
      <point x="235.0" y="324"/>
      <point x="235" y="204" type="curve" smooth="yes"/>
      <point x="235" y="121"/>
      <point x="192" y="53"/>
      <point x="58" y="22" type="curve"/>
    </contour>
    <contour>
      <point x="231" y="114" type="line"/>
      <point x="309" y="41"/>
      <point x="364.85972850678735" y="-10.0"/>
      <point x="450" y="-10" type="curve" smooth="yes"/>
      <point x="554.243093922652" y="-10.0"/>
      <point x="604.0505694816953" y="68.17488612419643"/>
      <point x="628" y="151" type="curve"/>
      <point x="597" y="164" type="line"/>
      <point x="573.0742617877831" y="89.23206808682241"/>
      <point x="541.1554054054054" y="30.0"/>
      <point x="452" y="30" type="curve" smooth="yes"/>
      <point x="387.0769230769231" y="30.0"/>
      <point x="326" y="70"/>
      <point x="249" y="140" type="curve"/>
    </contour>
  </outline>
</glyph>
<glyph name="won" format="2">
  <advance width="664"/>
  <unicode hex="20A9"/>
  <outline>
    <contour>
      <point x="-11" y="710" type="line"/>
      <point x="-11" y="680" type="line"/>
      <point x="-5" y="680" type="line" smooth="yes"/>
      <point x="29" y="680"/>
      <point x="53" y="677"/>
      <point x="59" y="643" type="curve" smooth="yes"/>
      <point x="165" y="0" type="line"/>
      <point x="212" y="0" type="line"/>
      <point x="339" y="685" type="line"/>
      <point x="326" y="689" type="line"/>
      <point x="465" y="0" type="line"/>
      <point x="518" y="0" type="line"/>
      <point x="605" y="637" type="line" smooth="yes"/>
      <point x="610" y="671"/>
      <point x="636" y="680"/>
      <point x="668" y="680" type="curve" smooth="yes"/>
      <point x="674" y="680" type="line"/>
      <point x="674" y="710" type="line"/>
      <point x="494" y="710" type="line"/>
      <point x="494" y="680" type="line"/>
      <point x="513" y="680" type="line" smooth="yes"/>
      <point x="541.5312169312169" y="680"/>
      <point x="574.0" y="673.0"/>
      <point x="574" y="662" type="curve"/>
      <point x="486" y="15" type="line"/>
      <point x="499" y="13" type="line"/>
      <point x="356" y="710" type="line"/>
      <point x="311" y="710" type="line"/>
      <point x="184" y="19" type="line"/>
      <point x="197" y="19" type="line"/>
      <point x="91" y="670" type="line"/>
      <point x="91.0" y="677.0"/>
      <point x="126.46268656716418" y="680"/>
      <point x="157" y="680" type="curve" smooth="yes"/>
      <point x="178" y="680" type="line"/>
      <point x="178" y="710" type="line"/>
    </contour>
    <contour>
      <point x="-11" y="439" type="line"/>
      <point x="-11" y="409" type="line"/>
      <point x="106" y="409" type="line"/>
      <point x="114" y="409" type="line"/>
      <point x="273" y="409" type="line"/>
      <point x="285" y="439" type="line"/>
    </contour>
    <contour>
      <point x="400" y="409" type="line"/>
      <point x="551" y="409" type="line"/>
      <point x="571" y="409" type="line"/>
      <point x="674" y="409" type="line"/>
      <point x="674" y="439" type="line"/>
      <point x="394" y="439" type="line"/>
    </contour>
    <contour>
      <point x="236" y="253" type="line"/>
      <point x="436" y="253" type="line"/>
      <point x="420" y="283" type="line"/>
      <point x="248" y="283" type="line"/>
    </contour>
    <contour>
      <point x="129" y="283" type="line"/>
      <point x="-11" y="283" type="line"/>
      <point x="-11" y="253" type="line"/>
      <point x="135" y="253" type="line"/>
    </contour>
    <contour>
      <point x="546" y="253" type="line"/>
      <point x="674" y="253" type="line"/>
      <point x="674" y="283" type="line"/>
      <point x="544" y="283" type="line"/>
    </contour>
  </outline>
</glyph>
<glyph name="peso" format="2">
  <advance width="664"/>
  <unicode hex="20B1"/>
  <outline>
    <contour>
      <point x="37" y="503" type="line"/>
      <point x="37" y="473" type="line"/>
      <point x="158" y="473" type="line"/>
      <point x="160" y="473" type="line"/>
      <point x="534" y="473" type="line"/>
      <point x="543" y="473" type="line"/>
      <point x="647" y="473" type="line"/>
      <point x="647" y="503" type="line"/>
      <point x="547" y="503" type="line"/>
      <point x="535" y="503" type="line"/>
      <point x="167" y="503" type="line"/>
      <point x="158" y="503" type="line"/>
    </contour>
    <contour>
      <point x="37" y="0" type="line"/>
      <point x="281" y="0" type="line"/>
      <point x="281" y="30" type="line"/>
      <point x="249" y="30" type="line" smooth="yes"/>
      <point x="216" y="30"/>
      <point x="174" y="33"/>
      <point x="174" y="40" type="curve" smooth="yes"/>
      <point x="174" y="261" type="line"/>
      <point x="275" y="261" type="line" smooth="yes"/>
      <point x="468" y="261"/>
      <point x="560.0" y="355"/>
      <point x="560" y="489" type="curve" smooth="yes"/>
      <point x="560.0" y="624.0"/>
      <point x="473" y="710"/>
      <point x="281" y="710" type="curve" smooth="yes"/>
      <point x="37" y="710" type="line"/>
      <point x="37" y="680" type="line"/>
      <point x="49" y="680" type="line" smooth="yes"/>
      <point x="98" y="680"/>
      <point x="134" y="673"/>
      <point x="134" y="644" type="curve" smooth="yes"/>
      <point x="134" y="62" type="line" smooth="yes"/>
      <point x="134" y="36"/>
      <point x="99" y="30"/>
      <point x="49" y="30" type="curve" smooth="yes"/>
      <point x="37" y="30" type="line"/>
    </contour>
    <contour>
      <point x="279" y="680" type="line" smooth="yes"/>
      <point x="446" y="680"/>
      <point x="517.0" y="610.0"/>
      <point x="517" y="488" type="curve" smooth="yes"/>
      <point x="517.0" y="368"/>
      <point x="447" y="291"/>
      <point x="273" y="291" type="curve" smooth="yes"/>
      <point x="174" y="291" type="line"/>
      <point x="174" y="680" type="line"/>
    </contour>
  </outline>
</glyph>
<glyph name="guarani" format="2">
  <advance width="663"/>
  <unicode hex="20B2"/>
  <outline>
    <contour>
      <point x="446" y="353" type="line"/>
      <point x="446" y="323" type="line"/>
      <point x="460" y="323" type="line" smooth="yes"/>
      <point x="502.1518987341772" y="323"/>
      <point x="534.0" y="317.75"/>
      <point x="534" y="296" type="curve"/>
      <point x="569" y="296" type="line"/>
      <point x="569.0" y="317.75"/>
      <point x="593.890625" y="323"/>
      <point x="628" y="323" type="curve" smooth="yes"/>
      <point x="633" y="323" type="line"/>
      <point x="633" y="353" type="line"/>
    </contour>
    <contour>
      <point x="317" y="790" type="line"/>
      <point x="317" y="684" type="line"/>
      <point x="317" y="680" type="line"/>
      <point x="317" y="30" type="line"/>
      <point x="317" y="25" type="line"/>
      <point x="317" y="-120" type="line"/>
      <point x="353" y="-120" type="line"/>
      <point x="353" y="22" type="line"/>
      <point x="353" y="28" type="line"/>
      <point x="353" y="678" type="line"/>
      <point x="353" y="685" type="line"/>
      <point x="353" y="790" type="line"/>
    </contour>
    <contour>
      <point x="350" y="10" type="curve"/>
      <point x="451" y="10.0"/>
      <point x="532" y="49"/>
      <point x="569" y="98" type="curve"/>
      <point x="569" y="333" type="line"/>
      <point x="534" y="333" type="line"/>
      <point x="534" y="109" type="line"/>
      <point x="511.558039390739" y="82.65508971956315"/>
      <point x="455.0" y="41.0"/>
      <point x="351" y="41" type="curve"/>
      <point x="189" y="41"/>
      <point x="99" y="159"/>
      <point x="99" y="355" type="curve" smooth="yes"/>
      <point x="99" y="556"/>
      <point x="196" y="670"/>
      <point x="362" y="670" type="curve" smooth="yes"/>
      <point x="460" y="670.0"/>
      <point x="514.612729919158" y="633.4337424905431"/>
      <point x="540" y="605" type="curve"/>
      <point x="562.0" y="605.0"/>
      <point x="583.6332126488041" y="638.4284898220494"/>
      <point x="518" y="648" type="curve"/>
      <point x="518" y="550" type="line"/>
      <point x="566" y="550" type="line"/>
      <point x="566" y="637" type="line"/>
      <point x="533" y="661"/>
      <point x="466" y="700"/>
      <point x="362" y="700" type="curve" smooth="yes"/>
      <point x="173" y="700"/>
      <point x="56" y="572"/>
      <point x="56" y="355" type="curve" smooth="yes"/>
      <point x="56" y="144"/>
      <point x="170" y="10"/>
    </contour>
  </outline>
</glyph>
<glyph name="cedi" format="2">
  <advance width="664"/>
  <unicode hex="20B5"/>
  <outline>
    <contour>
      <point x="390" y="700" type="curve" smooth="yes"/>
      <point x="192" y="700"/>
      <point x="56" y="575"/>
      <point x="56" y="355" type="curve" smooth="yes"/>
      <point x="56" y="150"/>
      <point x="179" y="10"/>
      <point x="368" y="10" type="curve" smooth="yes"/>
      <point x="515" y="10"/>
      <point x="595" y="95"/>
      <point x="629" y="219" type="curve"/>
      <point x="597" y="232" type="line"/>
      <point x="571.5022599705239" y="124.12494602913983"/>
      <point x="505" y="40"/>
      <point x="367" y="40" type="curve" smooth="yes"/>
      <point x="204.0" y="40.0"/>
      <point x="99.0" y="164.39490445859875"/>
      <point x="99" y="355" type="curve" smooth="yes"/>
      <point x="99.0" y="562.6592356687897"/>
      <point x="215.0" y="670.0"/>
      <point x="390" y="670" type="curve" smooth="yes"/>
      <point x="490.0" y="670.0"/>
      <point x="550" y="637"/>
      <point x="580" y="601" type="curve"/>
      <point x="597" y="588"/>
      <point x="603" y="633"/>
      <point x="558" y="645" type="curve"/>
      <point x="558" y="543" type="line"/>
      <point x="606" y="543" type="line"/>
      <point x="606" y="632" type="line"/>
      <point x="568" y="664"/>
      <point x="489" y="700"/>
    </contour>
    <contour>
      <point x="343" y="790" type="line"/>
      <point x="343" y="687" type="line"/>
      <point x="343" y="679" type="line"/>
      <point x="343" y="32" type="line"/>
      <point x="343" y="25" type="line"/>
      <point x="343" y="-120" type="line"/>
      <point x="379" y="-120" type="line"/>
      <point x="379" y="27" type="line"/>
      <point x="379" y="32" type="line"/>
      <point x="379" y="679" type="line"/>
      <point x="379" y="686" type="line"/>
      <point x="379" y="790" type="line"/>
    </contour>
  </outline>
</glyph>
<glyph name="uni20B8" format="2">
  <advance width="664"/>
  <unicode hex="20B8"/>
  <outline>
    <contour>
      <point x="312" y="66" type="line" smooth="yes"/>
      <point x="312" y="37"/>
      <point x="270" y="30"/>
      <point x="213" y="30" type="curve" smooth="yes"/>
      <point x="195" y="30" type="line"/>
      <point x="195" y="0" type="line"/>
      <point x="469" y="0" type="line"/>
      <point x="469" y="30" type="line"/>
      <point x="451" y="30" type="line" smooth="yes"/>
      <point x="394" y="30"/>
      <point x="352" y="37"/>
      <point x="352" y="66" type="curve" smooth="yes"/>
      <point x="352" y="535" type="line"/>
      <point x="420" y="535" type="line" smooth="yes"/>
      <point x="521.6917808219177" y="535"/>
      <point x="563.7259358009102" y="529.0858291510801"/>
      <point x="567" y="497" type="curve" smooth="yes"/>
      <point x="577" y="399" type="line"/>
      <point x="604" y="399" type="line"/>
      <point x="604" y="565" type="line"/>
      <point x="60" y="565" type="line"/>
      <point x="60" y="399" type="line"/>
      <point x="87" y="399" type="line"/>
      <point x="97" y="497" type="line" smooth="yes"/>
      <point x="100.2740641990898" y="529.0858291510801"/>
      <point x="142.3082191780822" y="535"/>
      <point x="244" y="535" type="curve" smooth="yes"/>
      <point x="312" y="535" type="line"/>
    </contour>
    <contour>
      <point x="60" y="710" type="line"/>
      <point x="60" y="680" type="line"/>
      <point x="604" y="680" type="line"/>
      <point x="604" y="710" type="line"/>
    </contour>
  </outline>
</glyph>
<glyph name="emptyset" format="2">
  <advance width="778"/>
  <unicode hex="2205"/>
  <outline>
    <contour>
      <point x="80" y="-40" type="line"/>
      <point x="721" y="555" type="line"/>
      <point x="697" y="579" type="line"/>
      <point x="56" y="-16" type="line"/>
    </contour>
    <contour>
      <point x="389.0" y="-7.0" type="curve" smooth="yes"/>
      <point x="575" y="-7.0"/>
      <point x="698.0" y="112.0"/>
      <point x="698" y="270" type="curve" smooth="yes"/>
      <point x="698.0" y="428.0"/>
      <point x="575" y="547.0"/>
      <point x="389.0" y="547.0" type="curve" smooth="yes"/>
      <point x="203" y="547.0"/>
      <point x="80.0" y="428.0"/>
      <point x="80" y="270" type="curve" smooth="yes"/>
      <point x="80.0" y="112.0"/>
      <point x="203" y="-7.0"/>
    </contour>
    <contour>
      <point x="389.0" y="29.0" type="curve" smooth="yes"/>
      <point x="222" y="29.0"/>
      <point x="120.0" y="128.0"/>
      <point x="120" y="270" type="curve" smooth="yes"/>
      <point x="120.0" y="411.0"/>
      <point x="227" y="512.0"/>
      <point x="389.0" y="512.0" type="curve" smooth="yes"/>
      <point x="558" y="512.0"/>
      <point x="658.0" y="413.0"/>
      <point x="658" y="270" type="curve" smooth="yes"/>
      <point x="658.0" y="130.0"/>
      <point x="553" y="29.0"/>
    </contour>
  </outline>
</glyph>
<glyph name="minus" format="2">
  <advance width="664"/>
  <unicode hex="2212"/>
  <outline>
    <contour>
      <point x="547" y="356" type="line"/>
      <point x="117" y="356" type="line"/>
      <point x="117" y="326" type="line"/>
      <point x="547" y="326" type="line"/>
    </contour>
  </outline>
</glyph>
<glyph name="approxequal" format="2">
  <advance width="664"/>
  <unicode hex="2248"/>
  <outline>
    <contour>
      <point x="443" y="320" type="curve" smooth="yes"/>
      <point x="517.1463414634146" y="320.0"/>
      <point x="549.0158819131824" y="381.0714686093207"/>
      <point x="563" y="444" type="curve"/>
      <point x="533" y="452" type="line"/>
      <point x="524.0113580306792" y="408.05552814998674"/>
      <point x="502.98936170212767" y="352.0"/>
      <point x="442" y="352" type="curve" smooth="yes"/>
      <point x="358" y="352"/>
      <point x="326" y="454"/>
      <point x="225" y="454" type="curve" smooth="yes"/>
      <point x="151.77165354330708" y="454.0"/>
      <point x="112.988495972418" y="390.9443972000203"/>
      <point x="101" y="333" type="curve"/>
      <point x="131" y="325" type="line"/>
      <point x="138.9915526685284" y="366.9556515097741"/>
      <point x="163.9591836734694" y="422.0"/>
      <point x="226" y="422" type="curve" smooth="yes"/>
      <point x="306" y="422"/>
      <point x="345" y="320"/>
    </contour>
    <contour>
      <point x="443" y="119" type="curve" smooth="yes"/>
      <point x="517.1463414634146" y="119.0"/>
      <point x="549.0158819131824" y="180.07146860932065"/>
      <point x="563" y="243" type="curve"/>
      <point x="533" y="251" type="line"/>
      <point x="524.0113580306792" y="207.05552814998674"/>
      <point x="502.98936170212767" y="151.0"/>
      <point x="442" y="151" type="curve" smooth="yes"/>
      <point x="358" y="151"/>
      <point x="326" y="253"/>
      <point x="225" y="253" type="curve" smooth="yes"/>
      <point x="151.77165354330708" y="253.0"/>
      <point x="112.988495972418" y="189.94439720002032"/>
      <point x="101" y="132" type="curve"/>
      <point x="131" y="124" type="line"/>
      <point x="138.9915526685284" y="165.9556515097741"/>
      <point x="163.9591836734694" y="221.0"/>
      <point x="226" y="221" type="curve" smooth="yes"/>
      <point x="306" y="221"/>
      <point x="345" y="119"/>
    </contour>
  </outline>
</glyph>
<glyph name="baht" format="2">
  <advance width="666"/>
  <outline>
    <contour>
      <point x="319" y="790" type="line"/>
      <point x="319" y="698" type="line"/>
      <point x="319" y="691" type="line"/>
      <point x="319" y="22" type="line"/>
      <point x="319" y="12" type="line"/>
      <point x="319" y="-120" type="line"/>
      <point x="355" y="-120" type="line"/>
      <point x="355" y="12" type="line"/>
      <point x="355" y="22" type="line"/>
      <point x="355" y="691" type="line"/>
      <point x="355" y="698" type="line"/>
      <point x="355" y="790" type="line"/>
    </contour>
    <contour>
      <point x="362" y="710" type="curve" smooth="yes"/>
      <point x="38" y="710" type="line"/>
      <point x="38" y="680" type="line"/>
      <point x="52" y="680" type="line" smooth="yes"/>
      <point x="99.57317073170731" y="680"/>
      <point x="135" y="673"/>
      <point x="135" y="647" type="curve" smooth="yes"/>
      <point x="135" y="64" type="line" smooth="yes"/>
      <point x="135" y="36.611111111111114"/>
      <point x="100" y="30"/>
      <point x="53" y="30" type="curve" smooth="yes"/>
      <point x="38" y="30" type="line"/>
      <point x="38" y="0" type="line"/>
      <point x="368" y="0" type="line" smooth="yes"/>
      <point x="517.7857142857143" y="0"/>
      <point x="601.0" y="74.0"/>
      <point x="601" y="192" type="curve" smooth="yes"/>
      <point x="601.0" y="309.0"/>
      <point x="506.2549019607843" y="384.0"/>
      <point x="299" y="384" type="curve"/>
      <point x="293" y="362" type="line"/>
      <point x="489.17730496453896" y="362.0"/>
      <point x="571.0" y="436.83146067415726"/>
      <point x="571" y="547" type="curve" smooth="yes"/>
      <point x="571.0" y="647.3076923076923"/>
      <point x="499.0" y="710"/>
    </contour>
    <contour>
      <point x="329" y="387" type="curve"/>
      <point x="175" y="387" type="line"/>
      <point x="175" y="680" type="line"/>
      <point x="362" y="680" type="line" smooth="yes"/>
      <point x="478.0" y="680"/>
      <point x="529.0" y="632.1428571428571"/>
      <point x="529" y="546" type="curve" smooth="yes"/>
      <point x="529.0" y="452.47058823529414"/>
      <point x="470.11675126903555" y="387.0"/>
    </contour>
    <contour>
      <point x="333" y="357" type="line"/>
      <point x="482" y="357.0"/>
      <point x="558.0" y="290.0"/>
      <point x="558" y="193" type="curve" smooth="yes"/>
      <point x="558.0" y="88.00000000000001"/>
      <point x="496.61538461538464" y="30"/>
      <point x="368" y="30" type="curve" smooth="yes"/>
      <point x="175" y="30" type="line"/>
      <point x="175" y="357" type="line"/>
    </contour>
  </outline>
</glyph>
<glyph name="breve_hook.uc" format="2">
  <advance width="588"/>
  <anchor x="294.0" y="724.0" name="_top"/>
  <outline>
    <contour>
      <point x="178.0" y="984.0" type="line"/>
      <point x="187.004136910752" y="1021.0170072997582"/>
      <point x="224.37704918032784" y="1058.0"/>
      <point x="301.0" y="1058.0" type="curve" smooth="yes"/>
      <point x="373.67289719626166" y="1058.0"/>
      <point x="409.0" y="1031.0"/>
      <point x="409.0" y="991.0" type="curve" smooth="yes"/>
      <point x="409.0" y="943.0"/>
      <point x="352.5515384584696" y="920.0159866219847"/>
      <point x="283.0" y="918.0" type="curve"/>
      <point x="308.0" y="938.0" type="line"/>
      <point x="308.0" y="888.0" type="line"/>
      <point x="270.0" y="888.0" type="line"/>
      <point x="270.0" y="945.0" type="line"/>
      <point x="328.7977905748057" y="947.0630803710459"/>
      <point x="368.0" y="957.0"/>
      <point x="368.0" y="991.0" type="curve" smooth="yes"/>
      <point x="368.0" y="1012.0"/>
      <point x="343.921875" y="1029.0"/>
      <point x="301.0" y="1029.0" type="curve" smooth="yes"/>
      <point x="249.0" y="1029.0"/>
      <point x="233.0" y="1007.0"/>
      <point x="226.0" y="984.0" type="curve"/>
    </contour>
    <contour>
      <point x="294.0" y="759.0" type="curve" smooth="yes"/>
      <point x="203.0" y="759.0"/>
      <point x="149.0" y="806.0"/>
      <point x="144.0" y="886.0" type="curve"/>
      <point x="175.0" y="886.0" type="line"/>
      <point x="185.0" y="826.0"/>
      <point x="220.0" y="800.0"/>
      <point x="294.0" y="800.0" type="curve" smooth="yes"/>
      <point x="366.4016393442623" y="800.0"/>
      <point x="404.0029203348771" y="826.0159290993297"/>
      <point x="415.0" y="886.0" type="curve"/>
      <point x="444.0" y="886.0" type="line"/>
      <point x="439.0" y="806.0"/>
      <point x="385.0" y="759.0"/>
    </contour>
  </outline>
</glyph>
<glyph name="circumflex.uc" format="2">
  <advance width="588"/>
  <anchor x="294.0" y="694.0" name="_top"/>
  <outline>
    <contour>
      <point x="331.0" y="884.0" type="line"/>
      <point x="460.0" y="760.0" type="line"/>
      <point x="460.0" y="749.0" type="line"/>
      <point x="438.0" y="749.0" type="line"/>
      <point x="264.0" y="869.0" type="line"/>
      <point x="320.0" y="869.0" type="line"/>
      <point x="148.0" y="749.0" type="line"/>
      <point x="128.0" y="749.0" type="line"/>
      <point x="128.0" y="760.0" type="line"/>
      <point x="257.0" y="884.0" type="line"/>
    </contour>
  </outline>
</glyph>
<glyph name="colonsign" format="2">
  <advance width="664"/>
  <outline>
    <contour>
      <point x="382" y="700" type="curve" smooth="yes"/>
      <point x="189" y="700"/>
      <point x="48" y="569"/>
      <point x="48" y="355" type="curve" smooth="yes"/>
      <point x="48" y="150"/>
      <point x="180" y="10"/>
      <point x="367" y="10" type="curve" smooth="yes"/>
      <point x="515" y="10"/>
      <point x="603" y="98"/>
      <point x="637" y="220" type="curve"/>
      <point x="606" y="233" type="line"/>
      <point x="578.992920287965" y="127.9724677865309"/>
      <point x="507" y="40"/>
      <point x="368" y="40" type="curve" smooth="yes"/>
      <point x="203" y="40"/>
      <point x="91" y="166"/>
      <point x="91" y="355" type="curve" smooth="yes"/>
      <point x="91" y="557"/>
      <point x="215" y="669"/>
      <point x="382" y="669" type="curve" smooth="yes"/>
      <point x="500" y="669"/>
      <point x="573.1098065532814" y="630.841390534149"/>
      <point x="600" y="592" type="curve"/>
      <point x="606.032614523968" y="605.0706648019308"/>
      <point x="590.1876872623465" y="622.1290293409459"/>
      <point x="574" y="634" type="curve"/>
      <point x="574" y="536" type="line"/>
      <point x="621" y="536" type="line"/>
      <point x="621" y="631" type="line"/>
      <point x="583.0127709630474" y="662.1690084405765"/>
      <point x="506.3577235772358" y="700.0"/>
    </contour>
    <contour>
      <point x="300" y="790" type="line"/>
      <point x="153" y="-120" type="line"/>
      <point x="188" y="-120" type="line"/>
      <point x="335" y="790" type="line"/>
    </contour>
    <contour>
      <point x="469" y="790" type="line"/>
      <point x="322" y="-120" type="line"/>
      <point x="358" y="-120" type="line"/>
      <point x="504" y="790" type="line"/>
    </contour>
  </outline>
</glyph>
<glyph name="dollar.alt" format="2">
  <advance width="664"/>
  <outline>
    <contour>
      <point x="368" y="683" type="line"/>
      <point x="368" y="787" type="line"/>
      <point x="328" y="787" type="line"/>
      <point x="328" y="683" type="line"/>
    </contour>
    <contour>
      <point x="328" y="19" type="line"/>
      <point x="328" y="-120" type="line"/>
      <point x="368" y="-120" type="line"/>
      <point x="368" y="19" type="line"/>
    </contour>
    <contour>
      <point x="352" y="38" type="curve" smooth="yes"/>
      <point x="247" y="38.0"/>
      <point x="144" y="69"/>
      <point x="96" y="126" type="curve"/>
      <point x="88" y="110"/>
      <point x="102" y="100"/>
      <point x="117" y="80" type="curve"/>
      <point x="117" y="186" type="line"/>
      <point x="67" y="186" type="line"/>
      <point x="67" y="96" type="line"/>
      <point x="119" y="49"/>
      <point x="228" y="8.0"/>
      <point x="352" y="8" type="curve" smooth="yes"/>
      <point x="497.44274809160305" y="8.0"/>
      <point x="613.0" y="70.0"/>
      <point x="613" y="196" type="curve" smooth="yes"/>
      <point x="613.0" y="320.0"/>
      <point x="486.56126438077087" y="354.10062743560303"/>
      <point x="378" y="379" type="curve" smooth="yes"/>
      <point x="259.477477377052" y="405.8916647968033"/>
      <point x="142.0" y="429.0"/>
      <point x="142" y="535" type="curve" smooth="yes"/>
      <point x="142.0" y="622.0"/>
      <point x="221.62085308056874" y="668.0"/>
      <point x="352" y="668" type="curve" smooth="yes"/>
      <point x="453" y="668"/>
      <point x="532" y="642"/>
      <point x="565" y="604" type="curve"/>
      <point x="572" y="626"/>
      <point x="558" y="649"/>
      <point x="536" y="653" type="curve"/>
      <point x="536" y="552" type="line"/>
      <point x="586" y="552" type="line"/>
      <point x="586" y="639" type="line"/>
      <point x="549" y="665"/>
      <point x="466" y="698"/>
      <point x="352" y="698" type="curve" smooth="yes"/>
      <point x="202.6048387096774" y="698.0"/>
      <point x="105.0" y="638.0"/>
      <point x="105" y="533" type="curve" smooth="yes"/>
      <point x="105.0" y="408.0"/>
      <point x="229.42928778531228" y="374.8968058208384"/>
      <point x="333" y="350" type="curve" smooth="yes"/>
      <point x="452.53538722431955" y="321.11228142078943"/>
      <point x="576.0" y="302.0"/>
      <point x="576" y="188" type="curve" smooth="yes"/>
      <point x="576.0" y="91.00000000000001"/>
      <point x="479.43111111111114" y="38.0"/>
    </contour>
  </outline>
</glyph>
<glyph name="guarani.proportional" format="2">
  <advance width="811"/>
  <outline>
    <contour>
      <point x="577" y="353" type="line"/>
      <point x="577" y="323" type="line"/>
      <point x="590" y="323" type="line" smooth="yes"/>
      <point x="639.02" y="323"/>
      <point x="676.0" y="317.38709677419354"/>
      <point x="676" y="294" type="curve"/>
      <point x="711" y="294" type="line"/>
      <point x="711.0" y="317.38709677419354"/>
      <point x="742.2857142857143" y="323"/>
      <point x="784" y="323" type="curve" smooth="yes"/>
      <point x="789" y="323" type="line"/>
      <point x="789" y="353" type="line"/>
    </contour>
    <contour>
      <point x="400" y="790" type="line"/>
      <point x="400" y="682" type="line"/>
      <point x="400" y="678" type="line"/>
      <point x="400" y="26" type="line"/>
      <point x="400" y="21" type="line"/>
      <point x="400" y="-120" type="line"/>
      <point x="437" y="-120" type="line"/>
      <point x="437" y="23" type="line"/>
      <point x="437" y="30" type="line"/>
      <point x="437" y="682" type="line"/>
      <point x="437" y="687" type="line"/>
      <point x="437" y="790" type="line"/>
    </contour>
    <contour>
      <point x="430" y="10" type="curve" smooth="yes"/>
      <point x="568" y="10.0"/>
      <point x="671.9472547966179" y="71.93237794438195"/>
      <point x="711" y="122" type="curve"/>
      <point x="711" y="333" type="line"/>
      <point x="676" y="337" type="line"/>
      <point x="676" y="132" type="line"/>
      <point x="646.8458136192589" y="103.85113039100865"/>
      <point x="576" y="40"/>
      <point x="431" y="40" type="curve" smooth="yes"/>
      <point x="224.0" y="40.0"/>
      <point x="96.0" y="159.37898089171975"/>
      <point x="96" y="355" type="curve" smooth="yes"/>
      <point x="96.0" y="547.0"/>
      <point x="233" y="669.0"/>
      <point x="435" y="669" type="curve" smooth="yes"/>
      <point x="561" y="669"/>
      <point x="637.4870955234097" y="632.5604259910692"/>
      <point x="678" y="596" type="curve"/>
      <point x="694" y="573"/>
      <point x="702" y="607"/>
      <point x="660" y="634" type="curve"/>
      <point x="660" y="533" type="line"/>
      <point x="708" y="533" type="line"/>
      <point x="708" y="623" type="line"/>
      <point x="659.4773188256515" y="661.6200931795835"/>
      <point x="569.0181818181818" y="700.0"/>
      <point x="435" y="700" type="curve" smooth="yes"/>
      <point x="209" y="700"/>
      <point x="53" y="560"/>
      <point x="53" y="355" type="curve" smooth="yes"/>
      <point x="53" y="149"/>
      <point x="204" y="10"/>
    </contour>
  </outline>
</glyph>
<glyph name="nine.lintab" format="2">
  <advance width="664"/>
  <outline>
    <contour>
      <point x="120" y="16" type="line"/>
      <point x="382" y="33"/>
      <point x="557" y="186"/>
      <point x="557" y="427" type="curve" smooth="yes"/>
      <point x="557" y="605"/>
      <point x="462" y="690"/>
      <point x="328" y="690" type="curve" smooth="yes"/>
      <point x="190" y="690"/>
      <point x="105" y="602"/>
      <point x="105" y="491" type="curve" smooth="yes"/>
      <point x="105" y="386"/>
      <point x="183" y="308"/>
      <point x="311" y="308" type="curve" smooth="yes"/>
      <point x="428" y="308"/>
      <point x="521" y="384"/>
      <point x="573" y="472" type="curve"/>
      <point x="585" y="448" type="line"/>
      <point x="538" y="359"/>
      <point x="437" y="278"/>
      <point x="309" y="278" type="curve" smooth="yes"/>
      <point x="161" y="278"/>
      <point x="62" y="366"/>
      <point x="62" y="491" type="curve" smooth="yes"/>
      <point x="62" y="619"/>
      <point x="169" y="720"/>
      <point x="328" y="720" type="curve" smooth="yes"/>
      <point x="483" y="720"/>
      <point x="600" y="616"/>
      <point x="600" y="427" type="curve" smooth="yes"/>
      <point x="600" y="176"/>
      <point x="415" y="1"/>
      <point x="125" y="-15" type="curve"/>
    </contour>
  </outline>
</glyph>
<glyph name="one.den" format="2">
  <advance width="364"/>
  <outline>
    <contour>
      <point x="213" y="48" type="curve" smooth="yes"/>
      <point x="213" y="341" type="line"/>
      <point x="192" y="341" type="line"/>
      <point x="169" y="313"/>
      <point x="128" y="299"/>
      <point x="57" y="298" type="curve"/>
      <point x="57" y="263" type="line"/>
      <point x="116" y="263"/>
      <point x="168" y="280"/>
      <point x="184" y="316" type="curve"/>
      <point x="184" y="328"/>
      <point x="185" y="320"/>
      <point x="173" y="306" type="curve"/>
      <point x="173" y="48" type="line" smooth="yes"/>
      <point x="173" y="32"/>
      <point x="145" y="29"/>
      <point x="105" y="29" type="curve" smooth="yes"/>
      <point x="65" y="29" type="line"/>
      <point x="65" y="0" type="line"/>
      <point x="317" y="0" type="line"/>
      <point x="317" y="29" type="line"/>
      <point x="287" y="29" type="line" smooth="yes"/>
      <point x="243" y="29"/>
      <point x="213" y="32"/>
    </contour>
  </outline>
</glyph>
<glyph name="sterling.alt" format="2">
  <advance width="664"/>
  <outline>
    <contour>
      <point x="41" y="353" type="line"/>
      <point x="41" y="323" type="line"/>
      <point x="467" y="323" type="line"/>
      <point x="467" y="353" type="line"/>
    </contour>
    <contour>
      <point x="57" y="0" type="line"/>
      <point x="593" y="0" type="line"/>
      <point x="593" y="170" type="line"/>
      <point x="565" y="170" type="line"/>
      <point x="554" y="75" type="line" smooth="yes"/>
      <point x="550" y="37"/>
      <point x="509.0" y="30"/>
      <point x="409" y="30" type="curve" smooth="yes"/>
      <point x="89" y="30" type="line"/>
      <point x="92" y="26" type="line"/>
      <point x="211" y="76"/>
      <point x="260" y="144"/>
      <point x="260" y="223" type="curve" smooth="yes"/>
      <point x="260" y="325"/>
      <point x="160" y="415"/>
      <point x="160" y="532" type="curve" smooth="yes"/>
      <point x="160.0" y="637"/>
      <point x="237" y="690"/>
      <point x="359" y="690" type="curve" smooth="yes"/>
      <point x="442" y="690"/>
      <point x="487" y="668"/>
      <point x="523" y="641" type="curve"/>
      <point x="521" y="651"/>
      <point x="509" y="667"/>
      <point x="500" y="681" type="curve"/>
      <point x="500" y="584" type="line"/>
      <point x="548" y="584" type="line"/>
      <point x="548" y="671" type="line"/>
      <point x="514" y="694"/>
      <point x="458" y="720"/>
      <point x="359" y="720" type="curve" smooth="yes"/>
      <point x="211" y="720"/>
      <point x="117.0" y="648"/>
      <point x="117" y="532" type="curve" smooth="yes"/>
      <point x="117" y="406"/>
      <point x="222" y="314"/>
      <point x="222" y="222" type="curve" smooth="yes"/>
      <point x="222" y="129"/>
      <point x="158" y="81"/>
      <point x="57" y="37" type="curve"/>
    </contour>
  </outline>
</glyph>
<glyph name="tilde.uc" format="2">
  <advance width="588"/>
  <anchor x="294.0" y="694.0" name="_top"/>
  <outline>
    <contour>
      <point x="370.0" y="772.0" type="curve" smooth="yes"/>
      <point x="420.0" y="772.0"/>
      <point x="447.0" y="805.0"/>
      <point x="465.0" y="864.0" type="curve"/>
      <point x="437.0" y="873.0" type="line"/>
      <point x="423.0" y="829.0"/>
      <point x="407" y="805"/>
      <point x="375.0" y="805.0" type="curve" smooth="yes"/>
      <point x="328.0" y="805.0"/>
      <point x="291.0" y="876.0"/>
      <point x="214.0" y="876.0" type="curve" smooth="yes"/>
      <point x="165.0" y="876.0"/>
      <point x="135.0" y="844.0"/>
      <point x="123.0" y="782.0" type="curve"/>
      <point x="151.0" y="772.0" type="line"/>
      <point x="161.0" y="818.0"/>
      <point x="175" y="843"/>
      <point x="210.0" y="843.0" type="curve" smooth="yes"/>
      <point x="256.0" y="843.0"/>
      <point x="296.0" y="772.0"/>
    </contour>
  </outline>
</glyph>
